<mxfile host="app.diagrams.net" modified="2020-03-16T06:02:49.861Z" agent="Mozilla/5.0 (Macintosh; Intel Mac OS X 10_15_3) AppleWebKit/537.36 (KHTML, like Gecko) Chrome/80.0.3987.132 Safari/537.36" etag="653qAvYmpN0jfNAyaoXY" version="12.8.5" type="github">
  <diagram id="30iLJYTvBUMPkwqEV-AV" name="Page-1">
    <mxGraphModel dx="1186" dy="692" grid="1" gridSize="10" guides="1" tooltips="1" connect="1" arrows="1" fold="1" page="1" pageScale="1" pageWidth="850" pageHeight="1100" math="0" shadow="0">
      <root>
        <mxCell id="0" />
        <mxCell id="1" parent="0" />
        <mxCell id="bj2yFRT0jkU7Tj2hQozE-1" value="View" style="rounded=0;whiteSpace=wrap;html=1;fillColor=#ffe6cc;strokeColor=#d79b00;" vertex="1" parent="1">
          <mxGeometry x="220" y="110" width="120" height="60" as="geometry" />
        </mxCell>
        <mxCell id="bj2yFRT0jkU7Tj2hQozE-2" value="Presenter" style="rounded=0;whiteSpace=wrap;html=1;fillColor=#f8cecc;strokeColor=#b85450;" vertex="1" parent="1">
          <mxGeometry x="220" y="180" width="120" height="60" as="geometry" />
        </mxCell>
        <mxCell id="bj2yFRT0jkU7Tj2hQozE-5" value="BL" style="rounded=0;whiteSpace=wrap;html=1;fillColor=#d5e8d4;strokeColor=#82b366;" vertex="1" parent="1">
          <mxGeometry x="220" y="250" width="120" height="60" as="geometry" />
        </mxCell>
        <mxCell id="bj2yFRT0jkU7Tj2hQozE-6" value="Models" style="rounded=0;whiteSpace=wrap;html=1;fillColor=#dae8fc;strokeColor=#6c8ebf;" vertex="1" parent="1">
          <mxGeometry x="220" y="320" width="120" height="60" as="geometry" />
        </mxCell>
        <mxCell id="bj2yFRT0jkU7Tj2hQozE-9" value="Commons" style="rounded=0;whiteSpace=wrap;html=1;fillColor=#e1d5e7;strokeColor=#9673a6;" vertex="1" parent="1">
          <mxGeometry x="365" y="180" width="75" height="200" as="geometry" />
        </mxCell>
        <mxCell id="bj2yFRT0jkU7Tj2hQozE-11" value="SDK/引擎" style="rounded=0;whiteSpace=wrap;html=1;fillColor=#1ba1e2;strokeColor=#006EAF;fontColor=#ffffff;" vertex="1" parent="1">
          <mxGeometry x="220" y="420" width="220" height="60" as="geometry" />
        </mxCell>
        <mxCell id="bj2yFRT0jkU7Tj2hQozE-12" value="手图后台" style="rounded=0;whiteSpace=wrap;html=1;fillColor=#6d8764;strokeColor=#3A5431;fontColor=#ffffff;" vertex="1" parent="1">
          <mxGeometry x="220" y="500" width="220" height="60" as="geometry" />
        </mxCell>
        <mxCell id="bj2yFRT0jkU7Tj2hQozE-13" value="基础能力服务" style="rounded=0;whiteSpace=wrap;html=1;fillColor=#647687;strokeColor=#314354;fontColor=#ffffff;" vertex="1" parent="1">
          <mxGeometry x="220" y="580" width="220" height="60" as="geometry" />
        </mxCell>
        <mxCell id="bj2yFRT0jkU7Tj2hQozE-14" value="数据" style="shape=datastore;whiteSpace=wrap;html=1;fillColor=#f0a30a;strokeColor=#BD7000;fontColor=#ffffff;" vertex="1" parent="1">
          <mxGeometry x="500" y="570" width="110" height="70" as="geometry" />
        </mxCell>
      </root>
    </mxGraphModel>
  </diagram>
</mxfile>
